<?xml version="1.0" standalone="no"?>
<!DOCTYPE svg PUBLIC "-//W3C//DTD SVG 20010904//EN"
 "http://www.w3.org/TR/2001/REC-SVG-20010904/DTD/svg10.dtd">
<svg version="1.0" xmlns="http://www.w3.org/2000/svg"
 width="476.000000pt" height="476.000000pt" viewBox="0 0 476.000000 476.000000"
 preserveAspectRatio="xMidYMid meet">
<metadata>
Created by potrace 1.14, written by Peter Selinger 2001-2017
</metadata>
<g transform="translate(0.000000,476.000000) scale(0.100000,-0.100000)"
fill="#000000" stroke="none">
<path d="M2457 4329 c-40 -23 -68 -115 -82 -269 -3 -36 -8 -78 -10 -95 -6 -42
-12 -103 -25 -225 -6 -58 -13 -116 -15 -130 -2 -14 -6 -56 -10 -95 -3 -38 -8
-81 -10 -95 -2 -14 -6 -50 -10 -80 -9 -80 -16 -135 -19 -137 -1 -2 -37 15 -78
36 -55 28 -94 41 -142 46 -36 4 -66 11 -66 15 0 4 19 4 43 -1 45 -9 113 -12
106 -5 -6 6 -115 19 -164 20 -46 1 -80 31 -54 47 24 15 68 10 130 -17 34 -14
68 -24 77 -22 10 2 -5 12 -33 23 -112 42 -114 42 -108 63 3 14 -7 29 -40 56
-40 33 -50 36 -113 38 -49 1 -57 3 -26 5 23 2 40 8 37 13 -6 9 51 -3 110 -24
41 -14 66 -12 64 8 -3 28 6 34 74 44 89 13 107 13 132 -4 35 -25 40 -15 5 11
-23 17 -42 23 -64 20 -17 -2 -53 -7 -81 -10 -46 -6 -48 -6 -30 8 11 9 17 19
12 23 -4 4 -18 -3 -32 -16 -22 -20 -30 -22 -62 -14 -49 12 -52 28 -9 56 44 28
48 44 6 23 l-31 -16 25 38 c26 41 48 105 24 70 -7 -11 -26 -40 -43 -65 -16
-26 -39 -48 -50 -50 -16 -3 -12 5 18 34 21 20 35 39 33 42 -3 2 -27 -11 -53
-30 -26 -20 -60 -37 -75 -40 -36 -7 -27 8 10 15 31 6 82 43 82 59 0 6 -10 4
-22 -4 -17 -11 -30 -12 -50 -6 -41 14 -34 25 25 38 67 16 96 33 42 24 -22 -3
-56 -10 -75 -15 -19 -5 -44 -9 -55 -8 -19 0 -18 1 4 17 47 33 206 92 248 92
12 0 24 4 27 8 7 11 -97 -4 -151 -22 -44 -15 -55 -15 -88 0 -26 11 -100 11
-144 0 -44 -11 -34 7 21 35 68 35 35 32 -45 -5 -41 -19 -90 -37 -109 -41 l-33
-6 24 19 c14 11 33 18 44 16 13 -2 17 1 13 11 -3 10 5 20 24 30 17 9 30 17 30
19 0 6 -90 -13 -109 -24 -33 -17 -37 -11 -6 10 17 10 46 21 65 25 44 7 187 68
172 73 -6 2 -39 -9 -74 -24 -42 -18 -84 -27 -128 -29 -36 -1 -87 -9 -115 -18
-28 -9 -42 -11 -31 -4 10 7 31 22 46 35 15 12 33 22 38 22 6 0 13 4 16 9 6 9
-46 6 -114 -9 -38 -7 -85 -7 -85 0 0 1 -15 3 -34 5 -29 2 -103 -12 -216 -41
-16 -4 -17 -3 -5 5 13 9 13 11 -2 11 -10 0 -18 -4 -18 -10 0 -5 -6 -10 -12
-10 -7 0 -26 -11 -43 -24 l-30 -24 27 -7 28 -7 -23 -18 c-38 -31 -10 -35 47
-7 62 31 74 33 56 13 -19 -24 -96 -49 -126 -42 -17 5 -35 1 -50 -9 -13 -8 -24
-12 -24 -8 1 5 15 17 33 28 32 20 45 53 19 47 -7 -1 4 18 24 43 38 45 39 45
104 45 75 1 122 15 173 54 20 15 48 31 64 36 l28 8 -26 1 c-15 1 -51 -16 -85
-39 -39 -26 -62 -36 -69 -30 -7 6 -14 8 -16 5 -3 -2 -36 -7 -75 -11 -90 -9
-132 -24 -205 -75 -32 -23 -61 -40 -64 -38 -6 6 95 112 126 133 37 23 83 36
159 43 36 3 67 8 70 11 6 5 -132 -4 -195 -14 -27 -4 -46 -1 -59 9 -18 13 -16
16 33 47 28 18 51 37 51 42 0 15 -69 -28 -150 -93 -41 -33 -101 -73 -134 -89
-32 -16 -65 -35 -73 -41 -7 -7 -16 -10 -19 -7 -2 3 22 33 56 68 33 34 60 64
60 67 0 2 -22 -11 -49 -31 -27 -20 -54 -36 -59 -36 -6 0 -17 -10 -23 -22 -20
-39 -62 -79 -70 -67 -4 8 -13 0 -23 -20 -9 -17 -19 -31 -21 -31 -7 0 13 49 29
72 11 16 15 17 18 5 2 -11 10 -7 30 15 l28 30 -25 -4 c-13 -3 -26 -1 -28 5 -5
15 -60 -63 -63 -90 -3 -33 -14 -42 -14 -12 0 13 11 45 25 72 26 47 22 66 -4
25 -43 -68 -62 -120 -55 -156 4 -20 4 -34 0 -31 -4 3 -10 26 -14 50 l-8 44
-18 -35 c-13 -23 -15 -35 -7 -38 6 -2 11 -7 11 -12 0 -12 -44 -18 -68 -9 -16
6 -22 5 -22 -6 0 -11 -12 -15 -42 -16 -109 -2 -161 -21 -94 -33 19 -4 44 -15
56 -24 l22 -18 -23 -16 c-70 -46 -199 -203 -199 -242 0 -9 45 4 48 14 2 6 8 7
14 4 5 -3 16 4 25 16 8 11 26 25 39 30 13 5 24 16 24 25 0 8 5 15 10 15 13 0
13 -17 0 -25 -5 -3 -10 -24 -10 -45 0 -22 -9 -59 -19 -82 -34 -78 -52 -151
-38 -160 7 -4 13 -2 15 7 2 8 8 15 13 15 12 0 12 -47 -1 -71 -7 -13 -7 -19 0
-19 14 0 12 -29 -6 -83 -9 -26 -14 -52 -11 -59 5 -14 14 3 51 102 l25 65 -6
-80 c-3 -44 -11 -89 -17 -100 -36 -67 -44 -126 -21 -145 13 -10 15 -9 15 9 0
11 4 21 9 21 4 0 6 12 3 26 -3 16 -1 25 5 21 5 -3 10 6 10 21 1 24 21 134 39
214 3 15 12 33 20 39 15 13 20 44 5 35 -5 -4 -7 3 -4 14 3 11 9 17 14 14 5 -3
9 4 9 16 0 11 4 28 9 38 13 23 23 53 28 77 2 11 11 25 19 32 19 14 22 99 4
117 -12 12 -14 90 -2 82 4 -2 9 -18 10 -35 1 -16 7 -40 12 -53 8 -19 9 -14 8
27 -2 85 -41 147 -84 131 -8 -3 -14 -2 -14 3 0 5 -10 12 -22 16 -61 21 -57 24
32 20 52 -2 99 -4 103 -4 5 -1 5 -5 2 -11 -9 -14 -4 -13 58 14 30 14 58 22 61
19 3 -4 14 2 25 11 16 14 22 15 39 5 16 -10 32 -10 78 0 70 16 111 22 144 20
14 -1 40 -2 57 -3 18 0 33 -6 33 -13 0 -9 8 -9 33 1 39 16 89 12 180 -16 61
-18 66 -22 50 -33 -17 -13 -15 -15 20 -30 21 -8 60 -21 88 -28 27 -7 46 -16
43 -20 -4 -4 5 -7 19 -7 17 0 36 -10 50 -26 12 -15 54 -42 92 -61 39 -18 84
-45 100 -60 72 -62 180 -123 248 -137 39 -9 25 -24 -28 -32 -25 -3 -45 -10
-45 -14 0 -4 26 -3 58 2 97 15 174 -3 339 -83 56 -27 106 -49 110 -49 5 0 18
-7 29 -15 19 -12 20 -20 14 -62 -4 -26 -11 -84 -15 -127 -4 -43 -8 -87 -10
-97 -2 -9 -6 -50 -10 -91 -3 -40 -8 -80 -10 -88 -2 -8 -7 -49 -10 -90 -3 -41
-8 -82 -10 -90 -2 -8 -7 -51 -10 -94 -4 -43 -8 -86 -10 -95 -1 -9 -6 -45 -10
-81 -14 -136 -17 -156 -28 -187 -6 -18 -16 -34 -23 -37 -10 -4 -11 1 -2 22 7
15 16 32 20 38 5 6 5 19 2 28 -6 14 -9 15 -23 3 -14 -12 -24 -13 -46 -8 -3 0
-1 11 6 22 8 16 8 20 0 14 -6 -3 -17 -21 -24 -38 -7 -17 -16 -27 -19 -22 -10
16 19 88 43 108 12 10 18 21 14 25 -4 4 -22 -11 -41 -32 l-34 -39 -9 24 c-8
20 -10 15 -11 -31 -1 -30 -3 -64 -5 -75 -2 -11 -6 -34 -10 -51 -4 -25 -15 -36
-58 -57 -28 -14 -61 -28 -73 -31 -35 -10 -207 -204 -277 -312 -14 -22 -37 -52
-52 -69 l-26 -30 4 30 c5 29 3 28 -44 -23 -27 -29 -49 -60 -49 -69 0 -11 5 -9
19 8 18 23 20 23 27 5 8 -22 -41 -130 -56 -121 -5 3 -21 -15 -35 -40 -15 -25
-30 -43 -34 -40 -25 15 -111 -134 -180 -308 -30 -75 -56 -136 -57 -134 -2 1 1
19 6 40 12 55 -6 55 -24 -1 -27 -81 -66 -117 -66 -61 0 10 -4 19 -9 19 -13 0
-24 -51 -12 -63 5 -5 7 -16 4 -23 -3 -8 -2 -14 1 -14 16 0 86 52 105 78 19 27
72 150 100 232 6 19 21 46 32 59 l20 24 72 -36 c86 -44 139 -50 227 -27 87 24
112 34 133 58 30 33 2 69 -90 117 -59 30 -83 30 -56 0 75 -84 93 -106 93 -114
0 -22 -141 -57 -213 -54 -15 1 -49 15 -75 31 -27 16 -58 33 -70 36 -21 7 -21
9 -6 37 8 16 30 37 49 46 19 9 35 20 35 24 0 4 7 10 16 13 13 5 16 0 12 -33
l-3 -39 60 6 c55 4 74 14 75 35 0 4 -13 1 -29 -8 -34 -17 -61 -11 -61 14 0 9
-5 22 -11 28 -9 9 -3 22 24 53 43 50 69 102 72 144 2 17 3 34 4 39 2 16 90
103 206 206 66 58 145 132 176 163 64 66 104 86 190 95 l61 6 -7 -79 c-4 -43
-8 -81 -10 -84 -2 -3 -6 -45 -10 -95 -4 -49 -8 -92 -10 -95 -1 -3 -6 -41 -10
-85 -4 -44 -8 -82 -10 -85 -1 -3 -6 -43 -9 -90 -4 -47 -11 -114 -16 -150 -5
-36 -11 -94 -15 -130 -3 -36 -11 -116 -18 -178 -19 -162 -17 -179 36 -280 12
-22 37 -31 37 -12 0 6 9 10 20 10 11 0 25 9 32 20 7 11 18 20 24 20 7 0 15 7
18 16 3 8 2 13 -3 10 -5 -3 -3 11 4 32 12 35 16 60 30 192 3 30 8 71 10 90 2
19 7 60 10 90 3 30 7 66 10 80 2 14 7 59 10 100 3 41 8 82 10 90 2 8 7 51 10
94 4 43 8 86 10 95 1 9 6 48 10 86 4 39 8 81 10 95 2 14 6 58 10 98 4 39 9 72
11 72 2 0 12 -7 21 -15 10 -8 45 -34 78 -59 33 -25 65 -49 70 -54 62 -51 254
-166 295 -176 14 -4 2 5 -26 18 -79 37 -347 219 -415 283 -23 22 -25 28 -18
71 4 26 10 76 13 112 4 36 11 106 16 155 6 50 12 113 15 140 3 28 8 66 10 85
3 19 7 55 9 80 3 25 10 90 16 145 6 55 13 118 15 140 2 22 7 69 11 105 4 36 8
72 10 80 1 8 3 23 3 33 1 18 3 18 34 -2 112 -74 504 -287 512 -279 2 2 -35 23
-83 47 -96 49 -366 200 -425 239 -32 21 -37 30 -33 51 3 14 8 58 11 96 4 39 8
81 10 95 3 14 7 50 10 80 5 58 13 131 20 190 2 19 7 60 10 90 3 30 8 71 10 90
3 19 7 60 10 90 3 30 12 114 20 185 9 72 17 150 19 175 4 55 -15 133 -39 160
-19 22 -59 26 -88 9z m-1553 -297 c5 -8 -148 -123 -219 -166 -24 -14 -22 -10
14 26 25 23 49 43 55 43 6 0 10 10 8 22 -2 12 2 24 7 28 7 4 8 -1 4 -12 -6
-16 -4 -16 18 2 13 11 26 23 29 26 3 3 16 13 30 22 27 19 46 22 54 9z m376
-87 c-7 -8 -15 -13 -19 -10 -4 2 -42 -7 -84 -20 -42 -14 -91 -27 -109 -29 -55
-8 61 43 134 59 87 19 93 19 78 0z m170 11 c0 -2 -25 -16 -55 -30 -44 -22 -58
-25 -75 -16 -26 14 -22 19 16 24 16 3 40 9 54 15 25 10 60 14 60 7z m-640 -36
c-19 -16 -39 -30 -44 -30 -5 0 8 14 29 30 49 39 61 39 15 0z m130 0 c-17 -16
-30 -35 -28 -42 3 -7 -5 -21 -18 -30 -27 -22 -41 -23 -24 -3 16 20 6 19 -14
-1 -9 -8 -16 -11 -16 -5 0 5 14 19 30 31 17 12 30 28 30 36 0 12 47 41 69 44
2 0 -11 -13 -29 -30z m-251 4 c-14 -17 -94 -74 -103 -74 -20 0 2 23 51 54 64
40 71 43 52 20z m851 1 c0 -6 -49 -31 -80 -40 -53 -15 19 26 78 44 1 1 2 -1 2
-4z m-225 -56 c-4 -5 -23 -9 -43 -8 l-37 0 35 13 c37 13 54 11 45 -5z m260 11
c-3 -5 -12 -10 -18 -10 -7 0 -6 4 3 10 19 12 23 12 15 0z m-1019 -47 c-10 -26
-18 -8 -9 23 5 21 8 24 11 11 2 -10 1 -25 -2 -34z m194 32 c0 -8 -7 -15 -16
-15 -14 0 -14 3 -4 15 7 8 14 15 16 15 2 0 4 -7 4 -15z m670 5 c-20 -13 -33
-13 -25 0 3 6 14 10 23 10 15 0 15 -2 2 -10z m-247 -32 c-9 -10 -20 -18 -25
-18 -5 0 -4 8 1 18 6 10 17 19 26 19 13 0 13 -2 -2 -19z m340 5 c-7 -2 -19 -2
-25 0 -7 3 -2 5 12 5 14 0 19 -2 13 -5z m-1003 -28 c0 -8 -4 -15 -10 -15 -5 0
-7 7 -4 15 4 8 8 15 10 15 2 0 4 -7 4 -15z m180 11 c0 -2 -7 -7 -16 -10 -8 -3
-12 -2 -9 4 6 10 25 14 25 6z m430 0 c0 -2 -8 -10 -17 -17 -16 -13 -17 -12 -4
4 13 16 21 21 21 13z m678 -10 c34 -11 27 -22 -35 -57 l-56 -32 -44 23 c-24
13 -40 27 -36 31 15 14 108 47 128 44 11 -1 30 -5 43 -9z m-478 -5 c0 -13 -29
-35 -37 -28 -7 8 15 37 28 37 5 0 9 -4 9 -9z m315 -1 c3 -5 3 -10 -2 -10 -4 0
-18 -3 -30 -6 -13 -4 -23 -2 -23 4 0 9 15 16 42 21 4 0 10 -3 13 -9z m-224
-14 c-6 -8 -22 -16 -34 -19 -22 -6 -22 -6 2 14 27 22 49 26 32 5z m-766 -17
c-33 -10 -67 -18 -75 -18 -24 1 91 37 120 37 8 0 -12 -8 -45 -19z m924 18
c-32 -25 -69 -47 -69 -40 0 9 50 42 64 43 5 0 7 -1 5 -3z m-404 -17 c3 -5 1
-10 -4 -10 -6 0 -11 5 -11 10 0 6 2 10 4 10 3 0 8 -4 11 -10z m318 -14 c-37
-50 -116 -79 -152 -57 -10 6 -4 11 20 16 19 4 43 15 54 25 28 25 57 39 78 40
17 0 17 -1 0 -24z m-265 8 c12 -4 22 -10 22 -15 0 -13 -23 -10 -44 6 -21 16
-15 18 22 9z m-832 -27 c4 -4 -10 -7 -32 -6 -30 0 -34 2 -19 8 22 9 41 8 51
-2z m1265 -10 c19 -14 19 -15 1 -19 -32 -9 -132 -3 -133 7 -5 32 91 40 132 12z
m-305 -65 c-5 -4 -66 26 -66 33 0 3 16 -3 35 -12 19 -9 33 -18 31 -21z m-121
13 c39 -17 21 -18 -25 0 -19 7 -28 14 -20 14 8 0 29 -6 45 -14z m300 5 c-5 -8
-55 -23 -85 -25 -8 0 -24 4 -35 10 -17 8 -13 11 25 15 75 9 101 9 95 0z m112
-1 c-25 -15 -127 -49 -146 -49 -33 0 15 31 50 32 19 1 48 7 64 14 36 16 57 18
32 3z m186 -5 c39 -12 12 -31 -55 -39 -18 -2 -51 -6 -73 -9 -22 -3 -78 -7
-125 -10 -86 -5 -70 5 30 19 25 3 65 16 90 29 43 23 82 26 133 10z m-1614 -61
c-18 -20 -44 -46 -56 -58 -31 -30 -29 -44 2 -15 14 13 27 21 29 19 3 -3 -16
-25 -42 -49 -33 -33 -41 -37 -29 -17 31 49 3 28 -37 -28 -22 -30 -42 -52 -44
-50 -10 10 63 106 127 168 73 71 108 92 50 30z m1236 -24 c6 -6 -8 -3 -30 6
-22 9 -44 21 -50 26 -5 6 8 3 30 -6 22 -9 45 -21 50 -26z m273 14 c-10 -2 -28
-2 -40 0 -13 2 -5 4 17 4 22 1 32 -1 23 -4z m141 -9 c2 -2 -19 -4 -47 -4 -28
0 -53 4 -56 8 -5 8 95 4 103 -4z m-231 -3 c9 -6 0 -12 -32 -20 -53 -13 -56
-13 -56 -3 0 9 39 29 60 31 8 0 21 -3 28 -8z m-1387 -34 c-10 -9 -11 -8 -5 6
3 10 9 15 12 12 3 -3 0 -11 -7 -18z m1287 -16 c24 -20 29 -33 9 -25 -11 4 -42
44 -34 44 2 0 14 -8 25 -19z m362 9 c0 -5 9 -10 21 -10 11 0 32 -9 46 -20 31
-24 18 -26 -25 -4 -18 8 -58 18 -89 21 -41 5 -52 8 -38 14 29 11 85 11 85 -1z
m-151 -40 c2 0 -2 -7 -9 -15 -17 -20 -71 -16 -121 10 -70 35 -57 43 38 23 49
-10 90 -18 92 -18z m31 20 c11 -7 3 -8 -25 -4 -22 3 -42 8 -44 10 -9 9 55 3
69 -6z m-1520 -14 c0 -2 -3 -11 -6 -20 -9 -23 -24 -20 -24 4 0 11 7 20 15 20
8 0 15 -2 15 -4z m67 -48 c-3 -7 -5 -2 -5 12 0 14 2 19 5 13 2 -7 2 -19 0 -25z
m1302 -18 c18 -17 30 -30 24 -30 -12 0 -80 59 -68 59 6 1 25 -13 44 -29z m133
-6 c16 -8 26 -19 23 -24 -15 -24 -95 -1 -125 35 -12 15 -10 16 30 10 24 -4 57
-13 72 -21z m84 17 c5 -5 38 -21 74 -35 46 -17 57 -25 39 -25 -27 -1 -122 25
-154 42 -19 10 -19 10 0 18 27 10 30 10 41 0z m66 -1 c21 -6 40 -15 43 -20 3
-5 -16 -2 -42 7 -72 24 -73 33 -1 13z m-1652 -30 c0 -11 -4 -20 -9 -20 -5 0
-7 9 -4 20 3 11 7 20 9 20 2 0 4 -9 4 -20z m-9 -35 c2 2 5 -8 5 -21 1 -14 -1
-23 -4 -19 -3 3 -16 -16 -28 -42 -22 -45 -23 -45 -29 -20 -4 14 -3 32 1 39 9
14 15 35 17 60 1 12 6 14 18 8 9 -5 18 -8 20 -5z m1613 -3 c13 -7 -16 -22 -46
-22 -15 0 -29 4 -32 9 -3 4 7 7 22 5 15 -2 19 -1 10 2 -29 9 -20 25 10 18 15
-4 31 -9 36 -12z m-1631 -129 c-3 -16 -6 -37 -5 -48 1 -14 -1 -16 -7 -6 -8 12
-6 33 5 69 7 25 14 11 7 -15z m-51 -34 c6 -4 7 -12 3 -19 -11 -17 -33 30 -26
55 5 18 6 17 9 -5 2 -14 9 -28 14 -31z m1963 13 c6 -4 11 -13 13 -20 2 -11
-23 0 -57 25 -2 2 4 3 15 3 10 0 24 -4 29 -8z m71 -43 c4 -8 1 -8 -14 0 -12 6
-24 16 -28 22 -4 8 -1 8 14 0 12 -6 24 -16 28 -22z m-145 -1166 c-11 -21 -20
-35 -21 -32 0 14 31 81 36 76 3 -3 -4 -22 -15 -44z m50 16 c-5 -13 -19 -33
-31 -44 -24 -21 -24 -20 0 30 23 48 49 59 31 14z m-100 -62 c-10 -9 -11 -8 -5
6 3 10 9 15 12 12 3 -3 0 -11 -7 -18z m137 -14 c-2 -9 -10 -17 -18 -19 -8 -1
-33 -5 -56 -8 -22 -4 -56 -11 -74 -16 -59 -17 -19 8 55 34 83 30 98 31 93 9z
m-332 -153 c-33 -50 -19 -51 36 -3 29 25 35 28 18 9 -14 -15 -46 -42 -72 -59
-26 -18 -77 -62 -115 -98 -70 -67 -113 -101 -82 -63 9 10 38 46 64 79 89 112
169 197 173 186 2 -7 -8 -30 -22 -51z m-346 -459 c-5 -11 -15 -23 -21 -27 -6
-3 -3 5 6 20 20 30 30 35 15 7z m199 -257 c3 -16 1 -17 -13 -5 -10 8 -22 24
-28 35 -11 20 -10 20 13 5 13 -9 26 -25 28 -35z"/>
<path d="M1540 4070 c-19 -12 -47 -26 -62 -33 -16 -6 -28 -15 -28 -19 0 -15
22 -8 65 22 24 17 48 30 54 30 5 0 13 5 16 10 10 16 -7 12 -45 -10z"/>
<path d="M1395 4020 c-8 -13 5 -13 25 0 13 8 13 10 -2 10 -9 0 -20 -4 -23 -10z"/>
<path d="M1907 3941 c-40 -26 -47 -36 -12 -18 42 23 62 37 50 36 -5 0 -22 -8
-38 -18z"/>
<path d="M1718 3913 c23 -2 40 -8 37 -14 -7 -10 5 -12 50 -9 43 2 52 16 13 18
-18 1 -58 4 -88 6 -30 1 -36 1 -12 -1z"/>
<path d="M340 3838 c0 -9 5 -20 10 -23 13 -8 13 5 0 25 -8 13 -10 13 -10 -2z"/>
<path d="M291 3814 c0 -11 3 -14 6 -6 3 7 2 16 -1 19 -3 4 -6 -2 -5 -13z"/>
<path d="M680 3548 c0 -8 10 -37 22 -64 46 -104 58 -191 37 -255 -13 -38 -58
-103 -66 -95 -3 3 4 17 16 32 11 15 21 34 21 43 0 11 -5 8 -17 -9 -23 -33 -53
-60 -83 -74 -14 -6 -41 -20 -60 -31 -19 -10 -46 -19 -59 -19 -13 -1 -27 -8
-32 -16 -28 -53 -73 -156 -71 -163 1 -4 -4 -29 -12 -55 -12 -38 -21 -88 -25
-143 -1 -4 -21 -28 -46 -53 -36 -38 -49 -46 -67 -40 -49 15 -104 115 -95 171
4 24 2 33 -6 30 -33 -12 11 -155 62 -201 34 -31 78 -23 123 21 53 51 61 67 69
139 4 46 16 78 44 125 51 86 66 101 165 171 90 64 150 122 150 144 0 23 16 16
53 -25 69 -76 193 -278 158 -256 -17 10 -13 -4 18 -59 16 -28 36 -76 45 -106
9 -30 25 -66 36 -80 l21 -25 -17 40 c-29 71 -36 96 -31 101 12 12 79 -164 101
-261 17 -77 50 -164 102 -267 19 -37 34 -75 34 -85 0 -24 -29 -56 -120 -134
-41 -35 -80 -68 -86 -74 -163 -153 -252 -227 -264 -220 -11 7 -34 -24 -26 -32
4 -4 11 -1 16 7 6 8 10 10 10 4 0 -14 -31 -41 -39 -34 -3 3 -11 -12 -18 -32
-15 -46 -28 -156 -17 -145 4 4 13 -7 18 -25 8 -23 24 -38 59 -57 30 -15 83
-61 138 -120 94 -100 120 -110 43 -16 -25 31 -43 59 -40 63 7 7 21 -8 99 -105
56 -71 57 -73 43 -101 -15 -28 -102 -145 -153 -204 -215 -248 -351 -373 -383
-353 -11 7 -19 0 -62 -53 -15 -18 -31 -32 -35 -32 -4 0 -8 -10 -8 -22 0 -26
38 -36 145 -38 90 -2 115 11 130 68 15 62 71 115 142 136 76 22 122 52 112 74
-4 9 -8 32 -10 50 -1 18 -4 35 -7 38 -5 6 -35 -73 -39 -105 -2 -20 -12 -27
-51 -37 -66 -17 -134 -75 -164 -140 -17 -38 -31 -54 -49 -58 -15 -4 -29 -5
-32 -1 -3 3 2 5 10 5 9 0 21 6 27 14 10 11 6 21 -19 49 -16 19 -30 37 -30 40
0 12 85 86 110 97 14 6 47 40 74 75 26 36 93 117 148 181 55 65 111 135 124
156 43 67 98 174 84 160 -22 -19 -31 -15 -85 34 -57 52 -190 154 -201 154 -13
0 -72 50 -93 78 -27 38 -34 81 -15 89 7 3 12 9 9 13 -7 12 47 81 106 133 30
26 137 116 238 200 184 150 185 151 235 152 l51 0 -2 -45 c-5 -82 -7 -100 -14
-100 -4 0 -6 -8 -4 -18 1 -9 0 -11 -2 -4 -3 6 -10 12 -17 12 -15 0 -66 -45
-66 -57 0 -5 -15 -14 -32 -22 -29 -12 -165 -140 -208 -195 -14 -18 -14 -19 10
-6 14 7 43 27 65 45 22 17 60 44 84 59 48 31 125 61 116 46 -9 -15 -138 -100
-217 -144 l-67 -37 -7 25 c-9 36 -16 33 -37 -19 -23 -55 -37 -58 -31 -7 4 33
2 31 -20 -23 -14 -33 -25 -70 -25 -83 -1 -20 2 -21 19 -12 17 9 27 4 68 -33
70 -65 154 -128 160 -122 3 3 -24 33 -60 65 -67 61 -113 134 -102 163 3 8 51
39 107 68 56 28 113 59 127 69 32 22 180 105 201 113 12 4 4 -24 -31 -106 -57
-132 -78 -208 -25 -92 20 44 42 94 50 110 7 17 28 67 45 113 29 75 31 86 19
115 -7 18 -16 36 -21 42 -15 16 -9 35 12 35 11 0 20 5 20 11 0 5 5 7 11 3 7
-4 9 -24 6 -50 -2 -24 -3 -44 0 -44 2 0 11 16 19 35 12 29 13 51 4 116 -5 44
-12 84 -15 90 -8 12 -14 45 -17 86 -2 38 -32 73 -49 56 -11 -11 -2 -43 13 -43
5 0 6 -5 3 -10 -4 -6 -10 -8 -15 -5 -5 3 -16 -5 -24 -17 -19 -26 -21 -42 -5
-32 6 3 15 1 19 -6 6 -9 13 -4 24 16 l16 29 -6 -28 c-4 -15 -1 -48 6 -73 11
-37 10 -50 0 -69 -18 -34 -30 -32 -74 14 -21 22 -58 47 -83 56 -24 9 -42 19
-40 22 3 2 -6 32 -20 66 -25 61 -63 187 -79 257 -7 33 -10 55 -13 107 -1 14
-6 20 -14 17 -8 -3 -22 14 -38 47 -13 29 -40 76 -60 103 -19 28 -46 70 -59 94
-13 23 -27 42 -32 42 -4 0 -8 5 -8 11 0 18 -103 170 -151 223 -56 62 -55 61
-63 126 -3 30 -10 71 -16 90 -15 53 -12 59 12 21 12 -19 23 -52 24 -75 2 -23
3 -44 3 -49 1 -4 15 0 32 8 29 16 31 15 36 -4 3 -11 20 -27 39 -36 19 -9 34
-23 34 -31 0 -8 4 -13 9 -10 8 5 63 -65 74 -96 4 -10 11 -18 17 -18 15 0 -20
82 -46 108 -13 13 -24 29 -24 37 0 8 -5 14 -11 12 -6 -1 -16 15 -23 36 -6 22
-14 35 -18 31 -5 -4 -8 -1 -8 7 0 12 -2 12 -10 -1 -7 -12 -10 -11 -16 5 -7 18
-8 18 -14 0 -5 -15 -10 -9 -25 28 -10 26 -21 47 -26 47 -5 0 -4 -12 2 -26 14
-40 3 -41 -16 -2 -15 27 -77 117 -107 153 -5 5 -8 2 -8 -7z m-50 -442 c0 -4
-100 -66 -107 -66 -3 0 2 9 12 20 10 11 24 20 32 20 7 0 13 5 13 11 0 5 4 8 8
5 4 -2 14 -1 22 5 16 10 20 11 20 5z m-144 -77 c-8 -19 -26 -47 -41 -64 l-26
-30 17 35 c19 42 57 100 62 95 2 -1 -3 -18 -12 -36z m514 -114 c0 -5 -5 -3
-10 5 -5 8 -10 20 -10 25 0 6 5 3 10 -5 5 -8 10 -19 10 -25z m63 -107 l18 -33
-35 39 c-20 22 -36 44 -36 49 0 16 33 -19 53 -55z m57 -132 c-1 -16 -5 -12
-15 13 -19 42 -19 52 0 27 8 -11 15 -29 15 -40z m65 -192 c37 -144 37 -143 14
-94 -32 69 -49 123 -55 176 -8 73 11 35 41 -82z m53 -169 c-3 -3 -9 2 -12 12
-6 14 -5 15 5 6 7 -7 10 -15 7 -18z m69 -137 c-3 -8 -6 -5 -6 6 -1 11 2 17 5
13 3 -3 4 -12 1 -19z m99 -30 c19 -18 36 -40 37 -49 2 -8 13 -47 27 -86 l24
-70 -23 -32 c-29 -40 -37 -34 -21 14 12 38 6 100 -12 122 -6 7 -8 22 -5 33 6
23 -19 52 -65 76 -31 16 -35 24 -13 24 8 0 31 -15 51 -32z m-196 -78 c-30 -28
-59 -50 -63 -50 -8 0 104 99 113 99 3 0 -20 -22 -50 -49z m-71 -62 c-2 -2 -20
-16 -39 -33 l-35 -30 29 33 c17 17 34 32 40 32 5 0 7 -1 5 -2z m287 -58 c-6
-47 -17 -68 -45 -94 -32 -29 -37 -11 -8 24 15 17 32 49 38 70 16 51 22 51 15
0z m-646 -455 c20 -24 6 -28 -15 -5 -10 11 -13 20 -8 20 6 0 16 -7 23 -15z
m310 -250 c13 -14 21 -25 18 -25 -2 0 -15 11 -28 25 -13 14 -21 25 -18 25 2 0
15 -11 28 -25z m-143 -510 c0 -8 -4 -12 -9 -9 -5 3 -6 10 -3 15 9 13 12 11 12
-6z m-321 -202 c-2 -2 -15 2 -30 8 -19 9 -23 15 -14 20 12 7 53 -19 44 -28z
m-106 -3 c0 -5 -2 -10 -4 -10 -3 0 -8 5 -11 10 -3 6 -1 10 4 10 6 0 11 -4 11
-10z m90 -46 c0 -2 -17 -4 -37 -3 -33 1 -35 2 -13 8 23 7 50 4 50 -5z"/>
<path d="M1286 3527 c3 -8 16 -19 30 -25 13 -7 24 -16 24 -21 0 -5 7 -12 16
-15 23 -9 9 9 -36 44 -22 17 -38 25 -34 17z"/>
<path d="M108 3401 c-15 -31 -43 -75 -63 -98 -40 -47 -41 -50 -19 -50 31 0
138 178 118 196 -5 5 -21 -16 -36 -48z"/>
<path d="M2125 3441 c-3 -5 9 -9 27 -8 18 1 49 -2 68 -6 35 -8 35 -8 10 7 -28
17 -96 21 -105 7z"/>
<path d="M2035 3430 c11 -5 31 -9 45 -9 20 -1 22 1 10 9 -8 5 -28 9 -45 9 -26
0 -27 -2 -10 -9z"/>
<path d="M846 3407 c3 -10 9 -15 12 -12 3 3 0 11 -7 18 -10 9 -11 8 -5 -6z"/>
<path d="M332 3360 c0 -14 2 -19 5 -12 2 6 2 18 0 25 -3 6 -5 1 -5 -13z"/>
<path d="M5 3360 c-3 -5 -1 -10 4 -10 6 0 11 5 11 10 0 6 -2 10 -4 10 -3 0 -8
-4 -11 -10z"/>
<path d="M2188 3353 c-10 -2 -18 -9 -18 -15 0 -5 7 -7 16 -4 9 3 22 6 30 6 8
0 14 5 14 10 0 10 -12 11 -42 3z"/>
<path d="M305 3318 c-5 -18 -9 -42 -10 -52 -2 -19 -2 -19 11 -1 12 16 20 85
10 85 -2 0 -7 -15 -11 -32z"/>
<path d="M321 3224 c-26 -32 -26 -40 -3 -40 9 -1 25 -4 34 -8 22 -10 39 21 27
52 -11 29 -33 28 -58 -4z"/>
<path d="M257 3168 c-31 -70 -29 -91 3 -29 29 58 41 91 32 91 -4 0 -20 -28
-35 -62z"/>
<path d="M1527 3205 c-75 -39 -130 -83 -161 -129 -51 -75 -135 -220 -130 -225
5 -5 -3 -16 76 104 73 111 141 185 214 233 49 33 50 43 1 17z"/>
<path d="M22 3180 c0 -19 2 -27 5 -17 2 9 2 25 0 35 -3 9 -5 1 -5 -18z"/>
<path d="M1430 3181 c-6 -12 -7 -21 -1 -21 10 0 24 30 17 37 -2 3 -9 -5 -16
-16z"/>
<path d="M1587 3170 c-14 -11 -28 -20 -32 -20 -4 0 -38 -20 -76 -45 -66 -45
-155 -139 -185 -196 -23 -45 -8 -34 38 29 68 92 99 121 179 168 42 24 84 53
94 64 23 26 15 26 -18 0z"/>
<path d="M95 3151 c-3 -5 -1 -12 5 -16 5 -3 10 1 10 9 0 18 -6 21 -15 7z"/>
<path d="M82 3088 c-7 -7 -12 -16 -12 -21 0 -5 -14 -28 -32 -51 l-32 -41 33
30 c32 29 66 83 59 91 -3 2 -10 -2 -16 -8z"/>
<path d="M232 2970 c0 -14 2 -19 5 -12 2 6 2 18 0 25 -3 6 -5 1 -5 -13z"/>
<path d="M1211 2774 c0 -11 3 -14 6 -6 3 7 2 16 -1 19 -3 4 -6 -2 -5 -13z"/>
<path d="M172 2768 c-20 -20 -14 -45 19 -72 49 -42 67 -10 29 52 -21 35 -30
38 -48 20z m43 -39 c9 -17 14 -33 11 -37 -10 -9 -46 30 -46 50 0 28 18 22 35
-13z"/>
<path d="M3026 2721 c24 -23 301 -120 289 -101 -3 4 -20 11 -40 14 -34 7 -194
67 -227 86 -22 13 -35 13 -22 1z"/>
<path d="M3343 2613 c9 -2 25 -2 35 0 9 3 1 5 -18 5 -19 0 -27 -2 -17 -5z"/>
<path d="M3401 2606 c6 -7 158 -10 165 -4 2 3 -35 6 -83 7 -48 1 -85 0 -82 -3z"/>
<path d="M3584 2603 c4 -4 19 -9 34 -11 35 -4 25 5 -12 12 -16 3 -25 2 -22 -1z"/>
<path d="M3663 2593 c9 -2 23 -2 30 0 6 3 -1 5 -18 5 -16 0 -22 -2 -12 -5z"/>
<path d="M3764 2575 c132 -34 252 -128 344 -268 44 -68 92 -170 92 -197 0 -5
4 -11 9 -14 13 -9 2 31 -31 103 -15 35 -26 67 -23 70 4 3 10 0 14 -7 6 -10 22
-11 62 -6 67 10 75 8 121 -22 27 -17 39 -33 44 -59 3 -20 9 -34 11 -31 3 2 2
19 -2 36 -4 20 -21 41 -47 60 -33 24 -37 31 -24 36 36 14 80 -10 103 -55 12
-24 20 -52 18 -63 -2 -10 -1 -16 4 -14 4 3 18 -19 31 -49 13 -30 28 -51 34
-48 6 3 5 0 -1 -8 -7 -7 -13 -22 -13 -33 0 -12 -9 -49 -19 -83 -11 -35 -16
-65 -11 -68 4 -3 11 14 14 38 4 23 11 49 16 57 7 10 9 -20 7 -93 -2 -59 -1
-110 2 -113 3 -3 7 -18 7 -32 2 -35 14 -63 24 -57 5 3 12 0 16 -6 4 -8 3 -9
-4 -5 -7 4 -12 1 -12 -9 0 -9 5 -13 11 -9 7 4 10 1 7 -7 -3 -8 -12 -15 -21
-17 -12 -2 -15 4 -15 28 1 16 -2 33 -5 37 -4 3 -7 0 -7 -9 0 -8 -7 -15 -16
-15 -13 0 -15 10 -12 56 2 31 8 65 13 75 6 14 5 17 -3 12 -11 -6 -18 20 -13
47 1 5 -3 6 -9 2 -6 -3 -7 -11 -4 -17 8 -12 7 -158 -1 -166 -8 -8 -37 21 -47
48 -10 25 -12 142 -3 189 l5 26 -11 -25 c-12 -27 -18 -129 -11 -172 2 -15 20
-46 39 -68 20 -23 33 -44 29 -47 -3 -3 5 -18 18 -34 13 -16 26 -34 28 -41 4
-11 13 -10 49 1 24 7 63 15 86 18 23 3 49 13 59 24 20 22 10 26 -12 5 -14 -15
-83 -19 -102 -7 -5 3 -11 25 -14 49 l-4 42 68 0 68 0 0 -32 c0 -43 7 -32 13
20 2 23 0 42 -4 42 -5 0 -9 -4 -9 -10 0 -15 -157 -13 -167 3 -25 40 6 70 46
45 17 -10 25 -10 42 0 17 11 20 11 13 0 -4 -7 1 -5 12 4 10 9 31 19 46 23 33
8 54 30 38 40 -14 9 -48 -3 -71 -26 -21 -21 -93 -27 -104 -9 -4 6 -12 7 -18 4
-9 -5 -9 -4 0 6 6 7 9 18 7 25 -3 7 8 48 25 90 19 46 32 97 33 126 1 65 -31
195 -79 319 -31 80 -39 90 -70 90 -13 0 -36 6 -51 14 -15 8 -48 16 -72 18 -25
2 -51 8 -59 12 -10 7 -12 5 -6 -4 5 -9 2 -10 -12 -6 -10 3 -42 0 -71 -8 -33
-8 -52 -9 -52 -3 0 11 -15 0 -15 -11 0 -4 -4 -14 -10 -22 -8 -13 -6 -13 8 -2
20 17 87 33 87 22 0 -5 -7 -15 -15 -24 -8 -8 -15 -21 -15 -29 0 -7 -3 -17 -7
-21 -8 -7 -9 -11 -12 -37 0 -6 -9 -9 -20 -6 -15 3 -18 0 -14 -17 4 -17 3 -18
-6 -6 -18 25 -12 40 15 40 15 0 23 4 18 11 -3 6 -15 9 -25 6 -30 -8 -22 3 11
14 17 6 30 15 30 20 0 11 -3 11 -34 0 -17 -7 -26 -7 -30 2 -2 7 -5 1 -5 -13
-1 -20 -3 -22 -11 -10 -15 24 -12 58 8 69 15 9 15 10 1 11 -18 0 -29 -19 -29
-49 0 -13 -23 4 -72 52 -80 78 -180 133 -258 142 -41 5 -39 4 14 -10z m641
-146 c8 -9 -111 -23 -124 -14 -6 3 -18 2 -27 -3 -14 -8 -12 -9 10 -9 15 0 32
-5 37 -10 10 -10 -39 -7 -71 3 -12 5 -12 8 4 20 11 8 16 14 12 14 -4 0 -5 3
-3 8 6 8 152 0 162 -9z m52 -32 c4 -6 1 -7 -8 -2 -8 5 -6 -1 5 -13 10 -12 22
-20 26 -19 4 1 7 -2 7 -8 -2 -12 -9 -10 -102 17 -56 17 -66 22 -50 29 27 11
115 8 122 -4z m59 -22 c16 -39 17 -45 6 -45 -4 0 -13 14 -19 30 -6 17 -16 30
-23 30 -6 0 -8 -5 -4 -12 4 -7 3 -8 -4 -4 -6 4 -9 13 -5 21 9 26 34 16 49 -20z
m-196 -6 l35 -2 -35 -7 -35 -7 45 -3 c82 -5 92 -7 113 -29 12 -11 16 -21 10
-21 -7 0 -22 10 -33 23 -18 18 -20 19 -14 3 6 -15 3 -17 -12 -13 -10 3 -35 8
-54 12 -59 11 -71 16 -64 27 5 7 2 8 -6 3 -7 -4 -16 -2 -21 6 -6 10 -9 11 -9
2 0 -7 -9 -13 -20 -13 -20 0 -26 11 -13 23 3 4 23 5 42 3 20 -3 52 -5 71 -7z
m-93 -49 c-1 -15 -6 -19 -22 -14 -26 8 -28 11 -20 23 12 20 44 13 42 -9z m61
3 c9 -3 27 -8 40 -9 58 -7 112 -37 129 -71 8 -18 13 -37 9 -40 -3 -3 -6 1 -6
11 0 9 -4 15 -9 12 -5 -3 -11 5 -15 17 -6 26 -44 48 -94 53 -18 1 -38 7 -45
11 -6 4 -21 8 -31 8 -11 0 -21 6 -23 13 -5 12 4 11 45 -5z m209 -2 c9 -11 22
-17 28 -14 7 2 16 0 20 -6 3 -7 0 -8 -10 -5 -11 5 -14 2 -9 -10 4 -10 13 -15
22 -11 12 4 12 2 3 -8 -6 -8 -11 -25 -10 -38 1 -13 2 -96 4 -184 l2 -160 -8
155 c-7 132 -10 180 -18 233 0 5 -6 5 -13 1 -7 -5 -9 -2 -5 9 3 9 -1 18 -10
21 -11 5 -14 2 -9 -9 3 -10 2 -13 -5 -10 -6 4 -8 13 -5 20 2 7 -1 18 -7 24 -8
8 -8 11 1 11 7 0 20 -9 29 -19z m-327 -31 c0 -5 -2 -10 -4 -10 -3 0 -8 5 -11
10 -3 6 -1 10 4 10 6 0 11 -4 11 -10z m139 1 c9 -6 -2 -11 -34 -15 -26 -4 -49
-5 -53 -2 -3 3 8 6 24 7 25 0 26 2 9 9 -17 7 -16 9 10 9 17 0 36 -3 44 -8z
m-99 -9 c0 -13 -12 -22 -22 -16 -10 6 -1 24 13 24 5 0 9 -4 9 -8z m291 -77 c6
-27 16 -60 22 -72 7 -16 6 -26 -6 -37 -14 -14 -16 -14 -21 0 -3 9 -6 27 -6 40
0 13 -5 24 -11 24 -6 0 -8 11 -5 28 4 15 2 43 -4 62 -8 30 -8 32 5 20 7 -8 19
-37 26 -65z m76 -14 c3 -15 6 -38 8 -52 1 -14 8 -37 15 -49 17 -32 7 -134 -20
-190 l-21 -45 3 55 c2 30 8 58 13 62 6 5 5 8 -3 8 -7 0 -11 4 -8 8 2 4 5 46 5
92 1 119 0 131 -10 124 -5 -3 -9 7 -9 23 1 26 2 26 12 9 6 -11 13 -31 15 -45z
m-50 -123 c-3 -8 -6 -5 -6 6 -1 11 2 17 5 13 3 -3 4 -12 1 -19z m33 -233 c0
-5 -5 -3 -10 5 -5 8 -10 20 -10 25 0 6 5 3 10 -5 5 -8 10 -19 10 -25z m166
-60 c-11 -8 -25 -15 -30 -15 -6 0 -2 7 8 15 11 8 25 15 30 15 6 0 2 -7 -8 -15z
m-216 -166 c-11 -8 -12 -12 -2 -16 6 -2 12 -12 12 -21 -1 -15 -2 -15 -15 2 -8
10 -13 28 -10 40 2 12 4 23 4 26 1 2 7 -2 13 -8 10 -10 10 -15 -2 -23z m76
-38 c17 -13 21 -22 13 -26 -6 -4 -15 -2 -19 5 -5 8 -9 8 -13 -4 -9 -23 -37 -8
-37 20 0 30 22 31 56 5z"/>
<path d="M1425 2323 l-18 -28 27 24 c28 26 31 31 17 31 -5 0 -17 -12 -26 -27z"/>
<path d="M1930 2275 c-7 -9 -8 -15 -2 -15 5 0 12 7 16 15 3 8 4 15 2 15 -2 0
-9 -7 -16 -15z"/>
<path d="M1586 2271 c-4 -5 -2 -12 3 -15 5 -4 12 -2 15 3 4 5 2 12 -3 15 -5 4
-12 2 -15 -3z"/>
<path d="M2069 2233 c-27 -17 -63 -62 -37 -48 7 5 23 17 34 27 12 10 27 18 34
16 7 -2 15 3 17 10 6 17 -17 15 -48 -5z"/>
<path d="M1599 2218 c0 -7 -2 -23 -5 -35 -2 -13 0 -23 5 -23 5 0 11 16 13 35
2 19 0 35 -4 35 -4 0 -8 -6 -9 -12z"/>
<path d="M1855 2175 c18 -53 15 -67 -21 -116 -19 -27 -42 -49 -50 -49 -8 0
-14 -4 -14 -9 0 -16 56 2 93 31 45 35 47 28 7 -32 -35 -53 -31 -64 10 -25 45
43 66 139 36 164 -11 9 -13 6 -13 -15 0 -14 -6 -31 -12 -37 -8 -8 -11 -1 -11
29 0 22 -7 49 -16 60 -15 19 -16 19 -9 -1z"/>
<path d="M4400 2120 c0 -5 5 -10 11 -10 5 0 7 5 4 10 -3 6 -8 10 -11 10 -2 0
-4 -4 -4 -10z"/>
<path d="M4452 2118 c0 -7 -9 -42 -18 -77 -14 -52 -19 -61 -26 -45 -7 17 -8
17 -4 -3 2 -12 0 -42 -6 -65 -5 -24 -11 -52 -12 -63 -1 -11 -8 -30 -14 -42
-16 -30 -17 -171 -1 -206 8 -17 20 -27 33 -26 21 0 21 0 -1 9 -28 11 -35 38
-34 117 1 73 9 113 23 113 5 0 8 8 7 18 -1 9 1 24 4 32 4 8 8 26 11 40 5 32
42 170 51 193 4 9 3 17 -2 17 -5 0 -10 -6 -11 -12z"/>
<path d="M4212 2060 c0 -14 2 -19 5 -12 2 6 2 18 0 25 -3 6 -5 1 -5 -13z"/>
<path d="M4471 2068 c0 -9 -4 -25 -7 -35 -5 -17 -5 -17 6 0 6 10 9 25 7 35 -4
15 -5 15 -6 0z"/>
<path d="M4402 2045 c0 -16 2 -22 5 -12 2 9 2 23 0 30 -3 6 -5 -1 -5 -18z"/>
<path d="M4218 1933 c5 -181 8 -199 10 -50 1 81 -1 147 -5 147 -5 0 -7 -44 -5
-97z"/>
<path d="M4453 2000 c2 -8 -2 -28 -10 -43 -8 -16 -13 -31 -11 -33 3 -2 12 11
20 30 11 22 13 37 6 47 -8 12 -9 12 -5 -1z"/>
<path d="M1646 1833 c-25 -38 -82 -110 -127 -162 -77 -89 -107 -137 -93 -150
10 -10 109 105 178 207 58 87 104 172 92 172 -3 0 -25 -30 -50 -67z"/>
<path d="M4604 1793 c-23 -31 -24 -34 -5 -18 22 19 46 55 38 55 -3 0 -17 -17
-33 -37z"/>
<path d="M4568 1723 c7 -3 16 -2 19 1 4 3 -2 6 -13 5 -11 0 -14 -3 -6 -6z"/>
<path d="M4212 1668 c-1 -20 -5 -45 -8 -55 -5 -17 -5 -17 6 0 6 9 9 34 7 55
l-4 37 -1 -37z"/>
<path d="M891 1579 c-12 -39 -20 -74 -17 -76 6 -7 9 0 31 80 24 85 11 81 -14
-4z"/>
<path d="M4438 1593 c7 -3 16 -2 19 1 4 3 -2 6 -13 5 -11 0 -14 -3 -6 -6z"/>
<path d="M4203 1550 c0 -25 2 -35 4 -22 2 12 2 32 0 45 -2 12 -4 2 -4 -23z"/>
<path d="M2865 1544 c50 -19 232 -57 247 -52 6 2 -34 12 -88 22 -55 11 -116
25 -138 32 -52 19 -71 16 -21 -2z"/>
<path d="M1327 1543 c-4 -3 -7 -11 -7 -17 0 -6 5 -5 12 2 6 6 9 14 7 17 -3 3
-9 2 -12 -2z"/>
<path d="M3880 1518 c-12 -8 -12 -9 3 -4 13 4 17 -1 18 -22 1 -15 1 -31 0 -35
-1 -5 2 -6 7 -3 10 6 4 64 -7 70 -4 3 -13 0 -21 -6z"/>
<path d="M1257 1481 c-47 -52 -62 -83 -77 -156 -17 -87 -35 -146 -59 -193 -29
-57 -26 -76 4 -27 29 47 62 145 69 209 7 57 36 121 56 121 8 0 16 10 18 23 2
12 7 22 12 22 4 0 10 9 13 20 7 27 5 26 -36 -19z"/>
<path d="M3774 1431 c-5 -49 -6 -87 -3 -85 4 2 10 40 14 83 l7 80 36 4 37 4
-41 1 -40 2 -10 -89z"/>
<path d="M3693 1497 c-65 -18 -62 -27 4 -11 73 19 83 22 58 22 -11 0 -39 -5
-62 -11z"/>
<path d="M3135 1492 c6 -6 44 -14 85 -18 41 -3 73 -4 70 -1 -3 2 -36 8 -75 12
-38 4 -74 9 -80 12 -7 4 -7 2 0 -5z"/>
<path d="M4193 1465 c0 -22 2 -30 4 -17 2 12 2 30 0 40 -3 9 -5 -1 -4 -23z"/>
<path d="M3597 1474 c-3 -4 -32 -10 -64 -14 l-58 -7 71 -2 c56 -1 73 2 78 14
5 15 -14 21 -27 9z"/>
<path d="M3323 1463 c15 -2 39 -2 55 0 15 2 2 4 -28 4 -30 0 -43 -2 -27 -4z"/>
<path d="M3415 1461 c3 -3 17 -6 31 -7 13 0 22 2 19 5 -3 3 -17 6 -31 7 -13 0
-22 -2 -19 -5z"/>
<path d="M3575 1430 c-3 -5 -1 -10 4 -10 6 0 11 5 11 10 0 6 -2 10 -4 10 -3 0
-8 -4 -11 -10z"/>
<path d="M3565 1315 c-4 -53 -5 -99 -2 -101 2 -3 8 38 12 91 4 53 5 99 2 101
-2 3 -8 -38 -12 -91z"/>
<path d="M3903 1391 c0 -11 5 -18 9 -15 4 3 5 11 1 19 -7 21 -12 19 -10 -4z"/>
<path d="M1401 1374 c0 -11 3 -14 6 -6 3 7 2 16 -1 19 -3 4 -6 -2 -5 -13z"/>
<path d="M4174 1326 c-5 -36 -6 -62 -2 -60 8 5 23 113 16 119 -2 2 -8 -24 -14
-59z"/>
<path d="M1230 1377 c0 -1 -4 -17 -9 -35 -12 -41 4 -42 18 -1 13 39 13 39 1
39 -5 0 -10 -1 -10 -3z"/>
<path d="M3902 1326 c1 -19 5 -33 8 -31 7 4 1 65 -6 65 -3 0 -4 -15 -2 -34z"/>
<path d="M3760 1300 c0 -16 2 -30 4 -30 2 0 6 14 8 30 3 17 1 30 -4 30 -4 0
-8 -13 -8 -30z"/>
<path d="M3752 1224 c-2 -19 -1 -34 2 -34 7 0 13 61 6 65 -3 2 -7 -12 -8 -31z"/>
<path d="M3903 1231 c0 -11 5 -18 9 -15 4 3 5 11 1 19 -7 21 -12 19 -10 -4z"/>
<path d="M4162 1230 c0 -14 2 -19 5 -12 2 6 2 18 0 25 -3 6 -5 1 -5 -13z"/>
<path d="M3902 1166 c1 -19 5 -33 8 -31 7 4 1 65 -6 65 -3 0 -4 -15 -2 -34z"/>
<path d="M4139 1109 c-8 -44 -12 -82 -9 -84 7 -4 34 154 28 161 -2 2 -11 -33
-19 -77z"/>
<path d="M3553 1145 c0 -22 2 -30 4 -17 2 12 2 30 0 40 -3 9 -5 -1 -4 -23z"/>
<path d="M3745 1168 c-9 -31 -12 -69 -5 -73 5 -3 10 15 12 40 3 45 1 56 -7 33z"/>
<path d="M3547 1085 c-4 -8 -3 -16 1 -19 4 -3 9 4 9 15 2 23 -3 25 -10 4z"/>
<path d="M3903 1071 c0 -11 5 -18 9 -15 4 3 5 11 1 19 -7 21 -12 19 -10 -4z"/>
<path d="M3726 1009 c-10 -82 -2 -85 10 -4 6 36 7 65 3 65 -3 0 -10 -27 -13
-61z"/>
<path d="M3536 989 c-11 -108 -14 -102 50 -96 30 3 58 8 61 11 4 3 -20 3 -51
0 l-58 -7 7 77 c4 42 5 76 3 76 -3 0 -8 -28 -12 -61z"/>
<path d="M3902 1020 c0 -14 2 -19 5 -12 2 6 2 18 0 25 -3 6 -5 1 -5 -13z"/>
<path d="M4122 990 c0 -14 2 -19 5 -12 2 6 2 18 0 25 -3 6 -5 1 -5 -13z"/>
<path d="M3900 979 c0 -5 5 -7 10 -4 6 3 10 8 10 11 0 2 -4 4 -10 4 -5 0 -10
-5 -10 -11z"/>
<path d="M4109 932 c-3 -20 -2 -29 4 -23 5 5 7 19 5 32 -3 20 -5 19 -9 -9z"/>
<path d="M3902 893 l-2 -41 71 -4 c39 -2 73 0 76 5 2 4 -27 7 -66 7 l-70 0 -4
38 -4 37 -1 -42z"/>
<path d="M3673 903 c9 -2 25 -2 35 0 9 3 1 5 -18 5 -19 0 -27 -2 -17 -5z"/>
<path d="M4100 876 c0 -8 -10 -17 -22 -19 -20 -4 -19 -4 5 -6 21 -1 27 4 27
19 0 11 -2 20 -5 20 -3 0 -5 -6 -5 -14z"/>
<path d="M461 844 c-51 -22 -123 -84 -117 -100 3 -8 0 -13 -6 -11 -6 1 -30
-29 -53 -67 -33 -57 -47 -72 -75 -80 l-35 -10 33 -5 32 -6 -25 -37 c-27 -40
-31 -58 -14 -58 5 0 19 20 30 45 22 49 46 74 29 30 -24 -63 4 -54 42 13 15 26
37 58 48 72 l21 25 -12 -25 c-7 -14 -23 -42 -36 -62 -33 -54 -28 -69 9 -28 18
19 36 34 39 33 9 -3 59 55 59 68 0 13 -24 11 -38 -3 -8 -8 -12 -8 -12 -1 0 6
20 33 44 60 41 44 46 47 66 35 20 -12 21 -11 15 7 -5 16 1 24 27 37 18 10 28
19 21 21 -33 11 -194 -118 -246 -197 l-16 -25 10 32 c6 18 32 67 57 110 50 83
82 108 161 129 45 12 45 13 11 13 -19 0 -50 -6 -69 -15z m-148 -173 c-15 -28
-29 -48 -31 -46 -4 4 48 95 55 95 2 0 -8 -22 -24 -49z"/>
<path d="M1257 816 c-39 -14 -64 -31 -84 -56 -19 -24 -5 -25 20 -2 13 12 46
33 73 46 54 27 50 33 -9 12z"/>
<path d="M458 643 c-50 -66 -102 -115 -92 -88 4 11 -5 5 -20 -14 -25 -34 -34
-61 -18 -61 13 1 38 24 57 53 23 36 31 28 10 -13 l-16 -31 43 28 c24 15 45 29
48 31 3 2 -3 8 -12 13 -15 8 -13 15 18 60 19 28 34 55 34 60 0 20 -18 7 -52
-38z"/>
<path d="M1348 679 c-48 -13 -222 -158 -207 -173 2 -2 29 18 59 45 30 27 63
52 73 55 9 3 17 10 17 15 0 6 9 7 21 4 18 -6 20 -4 14 14 -4 14 -2 21 7 22 21
1 61 9 65 13 9 9 -25 12 -49 5z"/>
<path d="M1594 657 c-27 -18 -68 -39 -92 -46 -24 -7 -45 -20 -48 -29 -3 -9
-10 -24 -15 -32 -39 -64 -35 -67 16 -12 32 35 60 61 62 58 2 -2 -16 -35 -41
-74 -26 -39 -46 -74 -46 -77 0 -4 25 25 55 64 40 50 68 76 100 90 48 21 59 32
23 24 -20 -5 -19 -1 11 31 43 45 37 45 -25 3z"/>
<path d="M2282 678 c-5 -7 -13 -23 -16 -35 -7 -22 -33 -49 -41 -41 -2 2 2 17
11 33 24 46 11 50 -19 5 -34 -52 -34 -60 1 -60 21 0 34 9 55 42 31 49 39 93 9
56z"/>
<path d="M922 669 c-13 -5 -52 -37 -86 -72 -60 -60 -84 -101 -65 -113 5 -3 9
1 9 10 0 25 78 114 125 141 25 15 45 31 45 36 0 5 -1 9 -2 8 -2 0 -14 -4 -26
-10z"/>
<path d="M1795 669 c-11 -17 1 -21 15 -4 8 9 8 15 2 15 -6 0 -14 -5 -17 -11z"/>
<path d="M576 639 c-15 -12 -25 -24 -22 -26 3 -3 19 6 36 21 37 31 25 35 -14
5z"/>
<path d="M1000 642 c-88 -54 -132 -88 -150 -117 -28 -46 -25 -55 8 -20 39 44
123 115 135 115 5 0 -14 -25 -43 -56 -54 -58 -61 -83 -11 -46 16 12 42 24 57
28 16 4 56 20 89 37 33 16 76 36 95 43 l35 14 -45 -5 c-65 -7 -142 -34 -162
-56 -9 -11 -19 -16 -22 -11 -3 5 4 19 15 31 11 12 18 25 14 30 -3 5 1 11 7 14
7 2 11 7 8 10 -3 2 -16 -2 -30 -11z"/>
<path d="M1834 613 c-42 -64 -80 -141 -88 -178 -3 -16 8 -1 24 34 33 70 37 77
45 70 2 -3 -5 -23 -16 -45 l-20 -39 40 43 c56 59 80 58 40 -1 l-21 -32 25 26
c29 32 77 65 77 53 0 -4 -15 -24 -32 -43 -31 -32 -30 -32 18 7 29 23 59 42 69
42 9 0 15 6 12 13 -2 7 -17 11 -37 9 l-33 -4 22 28 c32 40 19 40 -22 -1 -19
-19 -45 -35 -57 -35 l-21 0 23 31 c53 71 55 75 18 45 -34 -28 -55 -21 -30 9 7
8 8 15 4 15 -5 0 -23 -21 -40 -47z m11 -43 c-10 -11 -20 -18 -23 -15 -3 3 3
14 13 25 10 11 20 18 23 15 3 -3 -3 -14 -13 -25z"/>
<path d="M1639 618 c-19 -18 -52 -49 -74 -68 -22 -20 -51 -49 -65 -65 -14 -16
2 -5 35 24 99 87 191 132 210 101 6 -9 -21 -29 -130 -93 -71 -42 -47 -43 29
-2 68 38 74 38 55 3 -6 -11 -8 -22 -6 -24 3 -3 19 20 37 51 18 31 42 60 53 64
l21 8 -21 11 c-11 6 -30 10 -42 7 -11 -2 -23 0 -26 6 -12 18 -42 9 -76 -23z"/>
<path d="M1415 630 c3 -5 17 -10 31 -10 13 0 24 5 24 10 0 6 -14 10 -31 10
-17 0 -28 -4 -24 -10z"/>
<path d="M1400 575 c-7 -9 -10 -18 -7 -21 3 -3 10 4 17 15 13 25 8 27 -10 6z"/>
<path d="M1965 460 c-3 -5 -1 -10 4 -10 6 0 11 5 11 10 0 6 -2 10 -4 10 -3 0
-8 -4 -11 -10z"/>
<path d="M2100 439 c0 -5 5 -7 10 -4 6 3 10 8 10 11 0 2 -4 4 -10 4 -5 0 -10
-5 -10 -11z"/>
<path d="M1682 420 c0 -14 2 -19 5 -12 2 6 2 18 0 25 -3 6 -5 1 -5 -13z"/>
</g>
</svg>
